<?xml version="1.0" encoding="UTF-8" standalone="no"?>
<!DOCTYPE svg PUBLIC "-//W3C//DTD SVG 1.1//EN" "http://www.w3.org/Graphics/SVG/1.1/DTD/svg11.dtd">
<svg width="100%" height="100%" viewBox="0 0 495 184" version="1.1" xmlns="http://www.w3.org/2000/svg" xmlns:xlink="http://www.w3.org/1999/xlink" xml:space="preserve" xmlns:serif="http://www.serif.com/" style="fill-rule:evenodd;clip-rule:evenodd;stroke-miterlimit:10;">
    <g id="Artboard1" transform="matrix(1,0,0,0.949676,-62.6958,-444.133)">
        <rect x="62.696" y="467.668" width="494.338" height="193.616" style="fill:none;"/>
        <clipPath id="_clip1">
            <rect x="62.696" y="467.668" width="494.338" height="193.616"/>
        </clipPath>
        <g clip-path="url(#_clip1)">
            <g id="Layer1" transform="matrix(1,0,0,1.05299,62.6958,462.538)">
                <g transform="matrix(1.65193,0,0,1.02331,-42.179,-14.4846)">
                    <path d="M324.781,50.808L324.781,166.707C324.781,184.309 315.929,198.599 305.025,198.599L45.289,198.599C34.385,198.599 25.533,184.309 25.533,166.707L25.533,50.808C25.533,33.206 34.385,18.916 45.289,18.916L305.025,18.916C315.929,18.916 324.781,33.206 324.781,50.808Z" style="fill:white;"/>
                </g>
                <g transform="matrix(0.928665,0,0,-0.928665,-31.4304,644.72)">
                    <path d="M130,590L153.63,590" style="fill:none;fill-rule:nonzero;stroke:black;stroke-width:1px;"/>
                </g>
                <g transform="matrix(-0.830623,0.415312,-0.415312,-0.830623,486.962,522.345)">
                    <path d="M152.25,588.435L160.076,588.435L156.945,590.783L156.945,594.696L152.25,588.435Z" style="fill-rule:nonzero;stroke:black;stroke-width:1px;"/>
                </g>
                <g transform="matrix(0.928665,0,0,-0.928665,-31.4304,644.72)">
                    <path d="M76,610L124,610C124.394,610 124.784,609.962 125.171,609.885C125.557,609.808 125.932,609.694 126.296,609.543C126.66,609.393 127.006,609.208 127.333,608.989C127.661,608.77 127.964,608.521 128.243,608.243C128.521,607.964 128.77,607.661 128.989,607.334C129.208,607.006 129.393,606.66 129.543,606.296C129.694,605.932 129.808,605.557 129.885,605.171C129.962,604.784 130,604.394 130,604L130,576C130,575.606 129.962,575.216 129.885,574.829C129.808,574.443 129.694,574.068 129.543,573.704C129.393,573.34 129.208,572.994 128.989,572.667C128.77,572.339 128.521,572.036 128.243,571.757C127.964,571.479 127.661,571.23 127.333,571.011C127.006,570.792 126.66,570.608 126.296,570.457C125.932,570.306 125.557,570.192 125.171,570.115C124.784,570.038 124.394,570 124,570L76,570C75.606,570 75.216,570.038 74.829,570.115C74.443,570.192 74.068,570.306 73.704,570.457C73.34,570.608 72.994,570.792 72.667,571.011C72.339,571.23 72.036,571.479 71.757,571.757C71.479,572.036 71.23,572.339 71.011,572.667C70.792,572.994 70.607,573.34 70.457,573.704C70.306,574.068 70.192,574.443 70.115,574.829C70.038,575.216 70,575.606 70,576L70,604C70,604.394 70.038,604.784 70.115,605.171C70.192,605.557 70.306,605.932 70.457,606.296C70.607,606.66 70.792,607.006 71.011,607.334C71.23,607.661 71.479,607.964 71.757,608.243C72.036,608.521 72.339,608.77 72.667,608.989C72.994,609.208 73.34,609.393 73.704,609.543C74.068,609.694 74.443,609.808 74.829,609.885C75.216,609.962 75.606,610 76,610Z" style="fill:white;fill-rule:nonzero;stroke:black;stroke-width:1px;stroke-miterlimit:4;"/>
                </g>
                <g transform="matrix(0.928665,0,0,-0.928665,-31.4304,644.72)">
                    <path d="M260,590L283.63,590" style="fill:none;fill-rule:nonzero;stroke:black;stroke-width:1px;"/>
                </g>
                <g transform="matrix(-0.830623,0.415312,-0.415312,-0.830623,715.669,468.354)">
                    <path d="M282.25,588.435L290.076,588.435L286.945,590.783L286.945,594.696L282.25,588.435Z" style="fill-rule:nonzero;stroke:black;stroke-width:1px;"/>
                </g>
                <g transform="matrix(0.928665,0,0,-0.928665,-31.4304,644.72)">
                    <path d="M166,610L254,610C254.394,610 254.784,609.962 255.171,609.885C255.557,609.808 255.932,609.694 256.296,609.543C256.66,609.393 257.006,609.208 257.333,608.989C257.661,608.77 257.964,608.521 258.243,608.243C258.521,607.964 258.77,607.661 258.989,607.334C259.208,607.006 259.392,606.66 259.543,606.296C259.694,605.932 259.808,605.557 259.885,605.171C259.962,604.784 260,604.394 260,604L260,576C260,575.606 259.962,575.216 259.885,574.829C259.808,574.443 259.694,574.068 259.543,573.704C259.392,573.34 259.208,572.994 258.989,572.667C258.77,572.339 258.521,572.036 258.243,571.757C257.964,571.479 257.661,571.23 257.333,571.011C257.006,570.792 256.66,570.608 256.296,570.457C255.932,570.306 255.557,570.192 255.171,570.115C254.784,570.038 254.394,570 254,570L166,570C165.606,570 165.216,570.038 164.829,570.115C164.443,570.192 164.068,570.306 163.704,570.457C163.34,570.608 162.994,570.792 162.667,571.011C162.339,571.23 162.036,571.479 161.757,571.757C161.479,572.036 161.23,572.339 161.011,572.667C160.792,572.994 160.607,573.34 160.457,573.704C160.306,574.068 160.192,574.443 160.115,574.829C160.038,575.216 160,575.606 160,576L160,604C160,604.394 160.038,604.784 160.115,605.171C160.192,605.557 160.306,605.932 160.457,606.296C160.607,606.66 160.792,607.006 161.011,607.334C161.23,607.661 161.479,607.964 161.757,608.243C162.036,608.521 162.339,608.77 162.667,608.989C162.994,609.208 163.34,609.393 163.704,609.543C164.068,609.694 164.443,609.808 164.829,609.885C165.216,609.962 165.606,610 166,610Z" style="fill:white;fill-rule:nonzero;stroke:black;stroke-width:1px;stroke-miterlimit:4;"/>
                </g>
                <g transform="matrix(0.928665,0,0,-0.928665,-31.4304,619.182)">
                    <path d="M390,562.5C403.333,562.5 410,567.083 410,576.25C410,585.417 414.543,590 423.63,590" style="fill:none;fill-rule:nonzero;stroke:black;stroke-width:1px;"/>
                </g>
                <g transform="matrix(-0.830623,0.415312,-0.415312,-0.830623,950.548,361.83)">
                    <path d="M422.25,560.935L430.076,560.935L426.945,563.283L426.945,567.196L422.25,560.935Z" style="fill-rule:nonzero;stroke:black;stroke-width:1px;"/>
                </g>
                <g transform="matrix(0.928665,0,0,-0.928665,-31.4304,670.259)">
                    <path d="M390,617.5C403.333,617.5 410,612.917 410,603.75C410,594.583 414.543,590 423.63,590" style="fill:none;fill-rule:nonzero;stroke:black;stroke-width:1px;"/>
                </g>
                <g transform="matrix(-0.830623,0.415312,-0.415312,-0.830623,973.391,458.591)">
                    <path d="M422.25,615.935L430.076,615.935L426.945,618.283L426.945,622.196L422.25,615.935Z" style="fill-rule:nonzero;stroke:black;stroke-width:1px;"/>
                </g>
                <g transform="matrix(0.928665,0,0,-0.928665,-31.4304,579.714)">
                    <path d="M315,540C315,560 297.5,570 262.5,570C227.5,570 210,562.123 210,546.37" style="fill:none;fill-rule:nonzero;stroke:black;stroke-width:1px;"/>
                </g>
                <g transform="matrix(-0.415312,-0.830623,0.830623,-0.415312,-218.813,483.184)">
                    <path d="M206.87,563.815L214.696,563.815L211.565,566.163L211.565,570.076L206.87,563.815Z" style="fill-rule:nonzero;stroke:black;stroke-width:1px;"/>
                </g>
                <g transform="matrix(0.928665,0,0,-0.928665,-31.4304,644.72)">
                    <path d="M296,610L384,610C384.394,610 384.784,609.962 385.171,609.885C385.557,609.808 385.932,609.694 386.296,609.543C386.66,609.393 387.006,609.208 387.333,608.989C387.661,608.77 387.964,608.521 388.243,608.243C388.521,607.964 388.77,607.661 388.989,607.334C389.208,607.006 389.392,606.66 389.543,606.296C389.694,605.932 389.808,605.557 389.885,605.171C389.962,604.784 390,604.394 390,604L390,576C390,575.606 389.962,575.216 389.885,574.829C389.808,574.443 389.694,574.068 389.543,573.704C389.392,573.34 389.208,572.994 388.989,572.667C388.77,572.339 388.521,572.036 388.243,571.757C387.964,571.479 387.661,571.23 387.333,571.011C387.006,570.792 386.66,570.608 386.296,570.457C385.932,570.306 385.557,570.192 385.171,570.115C384.784,570.038 384.394,570 384,570L296,570C295.606,570 295.216,570.038 294.829,570.115C294.443,570.192 294.068,570.306 293.704,570.457C293.34,570.608 292.994,570.792 292.667,571.011C292.339,571.23 292.036,571.479 291.757,571.757C291.479,572.036 291.23,572.339 291.011,572.667C290.792,572.994 290.607,573.34 290.457,573.704C290.306,574.068 290.192,574.443 290.115,574.829C290.038,575.216 290,575.606 290,576L290,604C290,604.394 290.038,604.784 290.115,605.171C290.192,605.557 290.306,605.932 290.457,606.296C290.607,606.66 290.792,607.006 291.011,607.334C291.23,607.661 291.479,607.964 291.757,608.243C292.036,608.521 292.339,608.77 292.667,608.989C292.994,609.208 293.34,609.393 293.704,609.543C294.068,609.694 294.443,609.808 294.829,609.885C295.216,609.962 295.606,610 296,610Z" style="fill:white;fill-rule:nonzero;stroke:black;stroke-width:1px;stroke-miterlimit:4;"/>
                </g>
                <g transform="matrix(0.928665,0,0,-0.928665,-31.4304,557.546)">
                    <path d="M480,543.63C480,556.963 460.833,563.63 422.5,563.63C384.167,563.63 365,549.92 365,522.5" style="fill:none;fill-rule:nonzero;stroke:black;stroke-width:1px;"/>
                </g>
                <g transform="matrix(-0.415312,-0.830623,0.830623,-0.415312,-10.4967,611.931)">
                    <path d="M361.87,563.815L369.696,563.815L366.565,566.163L366.565,570.076L361.87,563.815Z" style="fill-rule:nonzero;stroke:black;stroke-width:1px;"/>
                </g>
                <g transform="matrix(0.928665,0,0,-0.928665,-31.4304,593.644)">
                    <path d="M436,582.5L524,582.5C524.394,582.5 524.784,582.462 525.17,582.385C525.557,582.308 525.932,582.194 526.296,582.043C526.66,581.893 527.006,581.708 527.333,581.489C527.661,581.27 527.964,581.021 528.243,580.743C528.521,580.464 528.77,580.161 528.989,579.834C529.208,579.506 529.392,579.16 529.543,578.796C529.694,578.432 529.808,578.057 529.885,577.671C529.962,577.284 530,576.894 530,576.5L530,548.5C530,548.106 529.962,547.716 529.885,547.33C529.808,546.943 529.694,546.568 529.543,546.204C529.392,545.84 529.208,545.494 528.989,545.167C528.77,544.839 528.521,544.536 528.243,544.257C527.964,543.979 527.661,543.73 527.333,543.511C527.006,543.292 526.66,543.108 526.296,542.957C525.932,542.806 525.557,542.692 525.17,542.615C524.784,542.539 524.394,542.5 524,542.5L436,542.5C435.606,542.5 435.216,542.539 434.829,542.615C434.443,542.692 434.068,542.806 433.704,542.957C433.34,543.108 432.994,543.292 432.667,543.511C432.339,543.73 432.036,543.979 431.757,544.257C431.479,544.536 431.23,544.839 431.011,545.167C430.792,545.494 430.607,545.84 430.457,546.204C430.306,546.568 430.192,546.943 430.115,547.33C430.038,547.716 430,548.106 430,548.5L430,576.5C430,576.894 430.038,577.284 430.115,577.671C430.192,578.057 430.306,578.432 430.457,578.796C430.607,579.16 430.792,579.506 431.011,579.834C431.23,580.161 431.479,580.464 431.757,580.743C432.036,581.021 432.339,581.27 432.667,581.489C432.994,581.708 433.34,581.893 433.704,582.043C434.068,582.194 434.443,582.308 434.829,582.385C435.216,582.462 435.606,582.5 436,582.5Z" style="fill:white;fill-rule:nonzero;stroke:black;stroke-width:1px;stroke-miterlimit:4;"/>
                </g>
                <g transform="matrix(0.928665,0,0,-0.928665,-31.4304,731.894)">
                    <path d="M480,636.37C480,623.037 460.833,616.37 422.5,616.37C384.167,616.37 365,630.08 365,657.5" style="fill:none;fill-rule:nonzero;stroke:black;stroke-width:1px;"/>
                </g>
                <g transform="matrix(0.415312,0.830623,-0.830623,0.415312,666.461,-438.765)">
                    <path d="M361.87,613.055L369.696,613.055L366.565,615.403L366.565,619.316L361.87,613.055Z" style="fill-rule:nonzero;stroke:black;stroke-width:1px;"/>
                </g>
                <g transform="matrix(0.928665,0,0,-0.928665,-31.4304,695.797)">
                    <path d="M436,637.5L524,637.5C524.394,637.5 524.784,637.462 525.17,637.385C525.557,637.308 525.932,637.194 526.296,637.043C526.66,636.893 527.006,636.708 527.333,636.489C527.661,636.27 527.964,636.021 528.243,635.743C528.521,635.464 528.77,635.161 528.989,634.834C529.208,634.506 529.392,634.16 529.543,633.796C529.694,633.432 529.808,633.057 529.885,632.671C529.962,632.284 530,631.894 530,631.5L530,603.5C530,603.106 529.962,602.716 529.885,602.329C529.808,601.943 529.694,601.568 529.543,601.204C529.392,600.84 529.208,600.494 528.989,600.167C528.77,599.839 528.521,599.536 528.243,599.257C527.964,598.979 527.661,598.73 527.333,598.511C527.006,598.292 526.66,598.108 526.296,597.957C525.932,597.806 525.557,597.692 525.17,597.615C524.784,597.538 524.394,597.5 524,597.5L436,597.5C435.606,597.5 435.216,597.538 434.829,597.615C434.443,597.692 434.068,597.806 433.704,597.957C433.34,598.108 432.994,598.292 432.667,598.511C432.339,598.73 432.036,598.979 431.757,599.257C431.479,599.536 431.23,599.839 431.011,600.167C430.792,600.494 430.607,600.84 430.457,601.204C430.306,601.568 430.192,601.943 430.115,602.329C430.038,602.716 430,603.106 430,603.5L430,631.5C430,631.894 430.038,632.284 430.115,632.671C430.192,633.057 430.306,633.432 430.457,633.796C430.607,634.16 430.792,634.506 431.011,634.834C431.23,635.161 431.479,635.464 431.757,635.743C432.036,636.021 432.339,636.27 432.667,636.489C432.994,636.708 433.34,636.893 433.704,637.043C434.068,637.194 434.443,637.308 434.829,637.385C435.216,637.462 435.606,637.5 436,637.5Z" style="fill:white;fill-rule:nonzero;stroke:black;stroke-width:1px;stroke-miterlimit:4;"/>
                </g>
                <g transform="matrix(1.33333,0,0,1.33333,-57.8966,-469.569)">
                    <g transform="matrix(8.35798,0,0,8.35798,80.7933,427.22)">
                        <path d="M0.043,-0.354C0.043,-0.426 0.054,-0.488 0.076,-0.537C0.092,-0.574 0.115,-0.606 0.143,-0.635C0.171,-0.664 0.202,-0.686 0.235,-0.7C0.28,-0.719 0.331,-0.728 0.39,-0.728C0.495,-0.728 0.579,-0.695 0.643,-0.63C0.706,-0.564 0.738,-0.473 0.738,-0.357C0.738,-0.241 0.706,-0.151 0.644,-0.085C0.581,-0.02 0.497,0.012 0.392,0.012C0.285,0.012 0.201,-0.02 0.138,-0.085C0.075,-0.15 0.043,-0.24 0.043,-0.354ZM0.192,-0.358C0.192,-0.277 0.211,-0.216 0.249,-0.174C0.286,-0.132 0.333,-0.111 0.391,-0.111C0.449,-0.111 0.496,-0.132 0.533,-0.173C0.57,-0.215 0.588,-0.277 0.588,-0.36C0.588,-0.442 0.57,-0.504 0.534,-0.544C0.498,-0.584 0.451,-0.604 0.391,-0.604C0.332,-0.604 0.284,-0.584 0.247,-0.543C0.211,-0.502 0.192,-0.441 0.192,-0.358Z" style="fill-rule:nonzero;"/>
                    </g>
                    <g transform="matrix(8.35798,0,0,8.35798,87.2874,427.22)">
                        <path d="M0.074,-0L0.074,-0.716L0.564,-0.716L0.564,-0.595L0.218,-0.595L0.218,-0.425L0.517,-0.425L0.517,-0.304L0.218,-0.304L0.218,-0L0.074,-0Z" style="fill-rule:nonzero;"/>
                    </g>
                    <g transform="matrix(8.35798,0,0,8.35798,92.3858,427.22)">
                        <path d="M0.074,-0L0.074,-0.716L0.564,-0.716L0.564,-0.595L0.218,-0.595L0.218,-0.425L0.517,-0.425L0.517,-0.304L0.218,-0.304L0.218,-0L0.074,-0Z" style="fill-rule:nonzero;"/>
                    </g>
                </g>
                <g transform="matrix(1.33333,0,0,1.33333,-57.8966,-469.569)">
                    <g transform="matrix(8.35798,0,0,8.35798,147.265,427.22)">
                        <path d="M0.072,-0.716L0.336,-0.716C0.396,-0.716 0.441,-0.711 0.473,-0.702C0.515,-0.69 0.551,-0.668 0.581,-0.636C0.611,-0.605 0.633,-0.566 0.649,-0.52C0.665,-0.474 0.672,-0.418 0.672,-0.351C0.672,-0.292 0.665,-0.241 0.65,-0.199C0.632,-0.147 0.607,-0.104 0.574,-0.072C0.549,-0.048 0.515,-0.029 0.472,-0.015C0.44,-0.005 0.398,-0 0.344,-0L0.072,-0L0.072,-0.716ZM0.217,-0.595L0.217,-0.121L0.325,-0.121C0.365,-0.121 0.394,-0.123 0.412,-0.127C0.436,-0.133 0.455,-0.143 0.47,-0.157C0.486,-0.171 0.499,-0.194 0.508,-0.226C0.518,-0.258 0.523,-0.302 0.523,-0.357C0.523,-0.413 0.518,-0.455 0.508,-0.485C0.499,-0.514 0.485,-0.538 0.467,-0.554C0.45,-0.571 0.427,-0.582 0.4,-0.588C0.38,-0.592 0.341,-0.595 0.282,-0.595L0.217,-0.595Z" style="fill-rule:nonzero;"/>
                    </g>
                    <g transform="matrix(8.35798,0,0,8.35798,153.301,427.22)">
                        <path d="M0.073,-0L0.073,-0.716L0.604,-0.716L0.604,-0.595L0.217,-0.595L0.217,-0.436L0.577,-0.436L0.577,-0.315L0.217,-0.315L0.217,-0.121L0.617,-0.121L0.617,-0L0.073,-0Z" style="fill-rule:nonzero;"/>
                    </g>
                    <g transform="matrix(8.35798,0,0,8.35798,158.876,427.22)">
                        <path d="M0.074,-0L0.074,-0.716L0.564,-0.716L0.564,-0.595L0.218,-0.595L0.218,-0.425L0.517,-0.425L0.517,-0.304L0.218,-0.304L0.218,-0L0.074,-0Z" style="fill-rule:nonzero;"/>
                    </g>
                    <g transform="matrix(8.35798,0,0,8.35798,163.52,427.22)">
                        <path d="M0.718,-0L0.561,-0L0.499,-0.163L0.212,-0.163L0.153,-0L0,-0L0.279,-0.716L0.432,-0.716L0.718,-0ZM0.452,-0.283L0.354,-0.549L0.257,-0.283L0.452,-0.283Z" style="fill-rule:nonzero;"/>
                    </g>
                    <g transform="matrix(8.35798,0,0,8.35798,169.556,427.22)">
                        <path d="M0.072,-0.716L0.216,-0.716L0.216,-0.328C0.216,-0.267 0.218,-0.227 0.222,-0.208C0.228,-0.179 0.243,-0.156 0.266,-0.138C0.289,-0.12 0.321,-0.111 0.361,-0.111C0.402,-0.111 0.433,-0.12 0.454,-0.136C0.475,-0.153 0.487,-0.174 0.492,-0.198C0.496,-0.223 0.498,-0.263 0.498,-0.32L0.498,-0.716L0.643,-0.716L0.643,-0.34C0.643,-0.254 0.639,-0.193 0.631,-0.158C0.623,-0.122 0.609,-0.092 0.587,-0.068C0.567,-0.043 0.539,-0.024 0.503,-0.009C0.468,0.005 0.422,0.012 0.366,0.012C0.297,0.012 0.245,0.004 0.21,-0.011C0.175,-0.027 0.147,-0.048 0.126,-0.073C0.106,-0.098 0.092,-0.125 0.086,-0.152C0.076,-0.193 0.072,-0.254 0.072,-0.334L0.072,-0.716Z" style="fill-rule:nonzero;"/>
                    </g>
                    <g transform="matrix(8.35798,0,0,8.35798,175.592,427.22)">
                        <path d="M0.077,-0L0.077,-0.71L0.221,-0.71L0.221,-0.121L0.581,-0.121L0.581,-0L0.077,-0Z" style="fill-rule:nonzero;"/>
                    </g>
                    <g transform="matrix(8.35798,0,0,8.35798,180.077,427.22)">
                        <path d="M0.234,-0L0.234,-0.595L0.021,-0.595L0.021,-0.716L0.59,-0.716L0.59,-0.595L0.378,-0.595L0.378,-0L0.234,-0Z" style="fill-rule:nonzero;"/>
                    </g>
                </g>
                <g transform="matrix(1.33333,0,0,1.33333,-57.8966,-469.569)">
                    <g transform="matrix(8.35798,0,0,8.35798,244.003,427.22)">
                        <path d="M0.071,-0L0.071,-0.716L0.287,-0.716L0.417,-0.228L0.545,-0.716L0.762,-0.716L0.762,-0L0.628,-0L0.628,-0.563L0.486,-0L0.347,-0L0.205,-0.563L0.205,-0L0.071,-0Z" style="fill-rule:nonzero;"/>
                    </g>
                    <g transform="matrix(8.35798,0,0,8.35798,250.962,427.22)">
                        <path d="M0.073,-0L0.073,-0.716L0.604,-0.716L0.604,-0.595L0.217,-0.595L0.217,-0.436L0.577,-0.436L0.577,-0.315L0.217,-0.315L0.217,-0.121L0.617,-0.121L0.617,-0L0.073,-0Z" style="fill-rule:nonzero;"/>
                    </g>
                    <g transform="matrix(8.35798,0,0,8.35798,256.533,427.22)">
                        <path d="M0.074,-0L0.074,-0.716L0.215,-0.716L0.508,-0.238L0.508,-0.716L0.642,-0.716L0.642,-0L0.497,-0L0.208,-0.467L0.208,-0L0.074,-0Z" style="fill-rule:nonzero;"/>
                    </g>
                    <g transform="matrix(8.35798,0,0,8.35798,262.566,427.22)">
                        <path d="M0.072,-0.716L0.216,-0.716L0.216,-0.328C0.216,-0.267 0.218,-0.227 0.222,-0.208C0.228,-0.179 0.243,-0.156 0.266,-0.138C0.289,-0.12 0.321,-0.111 0.361,-0.111C0.402,-0.111 0.433,-0.12 0.454,-0.136C0.475,-0.153 0.487,-0.174 0.492,-0.198C0.496,-0.223 0.498,-0.263 0.498,-0.32L0.498,-0.716L0.643,-0.716L0.643,-0.34C0.643,-0.254 0.639,-0.193 0.631,-0.158C0.623,-0.122 0.609,-0.092 0.587,-0.068C0.567,-0.043 0.539,-0.024 0.503,-0.009C0.468,0.005 0.422,0.012 0.366,0.012C0.297,0.012 0.245,0.004 0.21,-0.011C0.175,-0.027 0.147,-0.048 0.126,-0.073C0.106,-0.098 0.092,-0.125 0.086,-0.152C0.076,-0.193 0.072,-0.254 0.072,-0.334L0.072,-0.716Z" style="fill-rule:nonzero;"/>
                    </g>
                </g>
                <g transform="matrix(1.33333,0,0,1.33333,-57.8966,-469.569)">
                    <g transform="matrix(8.35798,0,0,8.35798,332.447,408.415)">
                        <path d="M0.073,-0L0.073,-0.716L0.377,-0.716C0.454,-0.716 0.509,-0.709 0.544,-0.696C0.579,-0.684 0.607,-0.661 0.627,-0.628C0.648,-0.595 0.659,-0.557 0.659,-0.515C0.659,-0.461 0.643,-0.417 0.611,-0.382C0.58,-0.347 0.533,-0.325 0.47,-0.316C0.501,-0.298 0.527,-0.278 0.547,-0.256C0.567,-0.234 0.595,-0.195 0.629,-0.14L0.717,-0L0.544,-0L0.439,-0.156C0.402,-0.211 0.377,-0.246 0.363,-0.261C0.35,-0.275 0.335,-0.285 0.32,-0.291C0.305,-0.296 0.28,-0.299 0.247,-0.299L0.218,-0.299L0.218,-0L0.073,-0ZM0.218,-0.413L0.325,-0.413C0.394,-0.413 0.437,-0.416 0.455,-0.422C0.472,-0.428 0.485,-0.438 0.495,-0.452C0.505,-0.466 0.51,-0.484 0.51,-0.506C0.51,-0.53 0.503,-0.549 0.49,-0.564C0.478,-0.579 0.459,-0.588 0.436,-0.592C0.424,-0.594 0.389,-0.595 0.331,-0.595L0.218,-0.595L0.218,-0.413Z" style="fill-rule:nonzero;"/>
                    </g>
                    <g transform="matrix(8.35798,0,0,8.35798,338.477,408.415)">
                        <path d="M0.073,-0L0.073,-0.716L0.604,-0.716L0.604,-0.595L0.217,-0.595L0.217,-0.436L0.577,-0.436L0.577,-0.315L0.217,-0.315L0.217,-0.121L0.617,-0.121L0.617,-0L0.073,-0Z" style="fill-rule:nonzero;"/>
                    </g>
                    <g transform="matrix(8.35798,0,0,8.35798,344.045,408.415)">
                        <path d="M0.531,-0.263L0.671,-0.219C0.649,-0.141 0.614,-0.083 0.563,-0.044C0.514,-0.007 0.45,0.012 0.374,0.012C0.278,0.012 0.2,-0.02 0.139,-0.085C0.078,-0.15 0.047,-0.239 0.047,-0.352C0.047,-0.471 0.078,-0.563 0.14,-0.629C0.201,-0.695 0.282,-0.728 0.382,-0.728C0.47,-0.728 0.541,-0.702 0.596,-0.65C0.628,-0.62 0.653,-0.576 0.669,-0.519L0.526,-0.484C0.517,-0.521 0.5,-0.551 0.473,-0.572C0.446,-0.594 0.413,-0.604 0.375,-0.604C0.322,-0.604 0.279,-0.585 0.246,-0.547C0.213,-0.509 0.196,-0.448 0.196,-0.362C0.196,-0.272 0.213,-0.207 0.245,-0.169C0.278,-0.131 0.32,-0.111 0.372,-0.111C0.41,-0.111 0.444,-0.124 0.471,-0.148C0.499,-0.172 0.519,-0.211 0.531,-0.263Z" style="fill-rule:nonzero;"/>
                    </g>
                    <g transform="matrix(8.35798,0,0,8.35798,350.075,408.415)">
                        <path d="M0.073,-0L0.073,-0.716L0.604,-0.716L0.604,-0.595L0.217,-0.595L0.217,-0.436L0.577,-0.436L0.577,-0.315L0.217,-0.315L0.217,-0.121L0.617,-0.121L0.617,-0L0.073,-0Z" style="fill-rule:nonzero;"/>
                    </g>
                    <g transform="matrix(8.35798,0,0,8.35798,355.644,408.415)">
                        <rect x="0.068" y="-0.716" width="0.145" height="0.716" style="fill-rule:nonzero;"/>
                    </g>
                    <g transform="matrix(8.35798,0,0,8.35798,357.96,408.415)">
                        <path d="M0.255,-0L-0,-0.716L0.156,-0.716L0.337,-0.186L0.513,-0.716L0.666,-0.716L0.41,-0L0.255,-0Z" style="fill-rule:nonzero;"/>
                    </g>
                    <g transform="matrix(8.35798,0,0,8.35798,363.528,408.415)">
                        <path d="M0.073,-0L0.073,-0.716L0.604,-0.716L0.604,-0.595L0.217,-0.595L0.217,-0.436L0.577,-0.436L0.577,-0.315L0.217,-0.315L0.217,-0.121L0.617,-0.121L0.617,-0L0.073,-0Z" style="fill-rule:nonzero;"/>
                    </g>
                    <g transform="matrix(8.35798,0,0,8.35798,369.097,408.415)">
                        <path d="M0.073,-0L0.073,-0.716L0.377,-0.716C0.454,-0.716 0.509,-0.709 0.544,-0.696C0.579,-0.684 0.607,-0.661 0.627,-0.628C0.648,-0.595 0.659,-0.557 0.659,-0.515C0.659,-0.461 0.643,-0.417 0.611,-0.382C0.58,-0.347 0.533,-0.325 0.47,-0.316C0.501,-0.298 0.527,-0.278 0.547,-0.256C0.567,-0.234 0.595,-0.195 0.629,-0.14L0.717,-0L0.544,-0L0.439,-0.156C0.402,-0.211 0.377,-0.246 0.363,-0.261C0.35,-0.275 0.335,-0.285 0.32,-0.291C0.305,-0.296 0.28,-0.299 0.247,-0.299L0.218,-0.299L0.218,-0L0.073,-0ZM0.218,-0.413L0.325,-0.413C0.394,-0.413 0.437,-0.416 0.455,-0.422C0.472,-0.428 0.485,-0.438 0.495,-0.452C0.505,-0.466 0.51,-0.484 0.51,-0.506C0.51,-0.53 0.503,-0.549 0.49,-0.564C0.478,-0.579 0.459,-0.588 0.436,-0.592C0.424,-0.594 0.389,-0.595 0.331,-0.595L0.218,-0.595L0.218,-0.413Z" style="fill-rule:nonzero;"/>
                    </g>
                </g>
                <g transform="matrix(1.33333,0,0,1.33333,-57.8966,-469.569)">
                    <g transform="matrix(8.35798,0,0,8.35798,340.185,446.722)">
                        <path d="M0.036,-0.233L0.177,-0.247C0.185,-0.199 0.202,-0.165 0.228,-0.143C0.254,-0.12 0.289,-0.109 0.333,-0.109C0.38,-0.109 0.415,-0.119 0.438,-0.139C0.462,-0.159 0.474,-0.182 0.474,-0.208C0.474,-0.225 0.469,-0.239 0.458,-0.251C0.449,-0.263 0.431,-0.273 0.407,-0.282C0.39,-0.288 0.351,-0.299 0.291,-0.313C0.214,-0.333 0.159,-0.356 0.128,-0.384C0.084,-0.424 0.062,-0.472 0.062,-0.528C0.062,-0.565 0.072,-0.599 0.093,-0.63C0.114,-0.662 0.143,-0.687 0.182,-0.703C0.221,-0.72 0.268,-0.728 0.323,-0.728C0.413,-0.728 0.481,-0.708 0.526,-0.669C0.571,-0.63 0.595,-0.577 0.598,-0.511L0.453,-0.505C0.447,-0.542 0.434,-0.568 0.413,-0.584C0.393,-0.6 0.362,-0.608 0.322,-0.608C0.28,-0.608 0.247,-0.6 0.223,-0.583C0.208,-0.571 0.2,-0.557 0.2,-0.538C0.2,-0.521 0.207,-0.507 0.222,-0.495C0.24,-0.479 0.284,-0.463 0.354,-0.447C0.425,-0.43 0.477,-0.413 0.51,-0.395C0.544,-0.377 0.57,-0.353 0.589,-0.322C0.609,-0.292 0.618,-0.254 0.618,-0.208C0.618,-0.167 0.607,-0.129 0.584,-0.093C0.561,-0.057 0.529,-0.031 0.487,-0.013C0.446,0.004 0.394,0.013 0.332,0.013C0.241,0.013 0.172,-0.008 0.123,-0.05C0.075,-0.092 0.046,-0.153 0.036,-0.233Z" style="fill-rule:nonzero;"/>
                    </g>
                    <g transform="matrix(8.35798,0,0,8.35798,345.755,446.722)">
                        <path d="M0.718,-0L0.561,-0L0.499,-0.163L0.212,-0.163L0.153,-0L0,-0L0.279,-0.716L0.432,-0.716L0.718,-0ZM0.452,-0.283L0.354,-0.549L0.257,-0.283L0.452,-0.283Z" style="fill-rule:nonzero;"/>
                    </g>
                    <g transform="matrix(8.35798,0,0,8.35798,351.167,446.722)">
                        <path d="M0.255,-0L-0,-0.716L0.156,-0.716L0.337,-0.186L0.513,-0.716L0.666,-0.716L0.41,-0L0.255,-0Z" style="fill-rule:nonzero;"/>
                    </g>
                    <g transform="matrix(8.35798,0,0,8.35798,356.737,446.722)">
                        <path d="M0.073,-0L0.073,-0.716L0.604,-0.716L0.604,-0.595L0.217,-0.595L0.217,-0.436L0.577,-0.436L0.577,-0.315L0.217,-0.315L0.217,-0.121L0.617,-0.121L0.617,-0L0.073,-0Z" style="fill-rule:nonzero;"/>
                    </g>
                    <g transform="matrix(8.35798,0,0,8.35798,362.308,446.722)">
                        <path d="M0.036,-0.233L0.177,-0.247C0.185,-0.199 0.202,-0.165 0.228,-0.143C0.254,-0.12 0.289,-0.109 0.333,-0.109C0.38,-0.109 0.415,-0.119 0.438,-0.139C0.462,-0.159 0.474,-0.182 0.474,-0.208C0.474,-0.225 0.469,-0.239 0.458,-0.251C0.449,-0.263 0.431,-0.273 0.407,-0.282C0.39,-0.288 0.351,-0.299 0.291,-0.313C0.214,-0.333 0.159,-0.356 0.128,-0.384C0.084,-0.424 0.062,-0.472 0.062,-0.528C0.062,-0.565 0.072,-0.599 0.093,-0.63C0.114,-0.662 0.143,-0.687 0.182,-0.703C0.221,-0.72 0.268,-0.728 0.323,-0.728C0.413,-0.728 0.481,-0.708 0.526,-0.669C0.571,-0.63 0.595,-0.577 0.598,-0.511L0.453,-0.505C0.447,-0.542 0.434,-0.568 0.413,-0.584C0.393,-0.6 0.362,-0.608 0.322,-0.608C0.28,-0.608 0.247,-0.6 0.223,-0.583C0.208,-0.571 0.2,-0.557 0.2,-0.538C0.2,-0.521 0.207,-0.507 0.222,-0.495C0.24,-0.479 0.284,-0.463 0.354,-0.447C0.425,-0.43 0.477,-0.413 0.51,-0.395C0.544,-0.377 0.57,-0.353 0.589,-0.322C0.609,-0.292 0.618,-0.254 0.618,-0.208C0.618,-0.167 0.607,-0.129 0.584,-0.093C0.561,-0.057 0.529,-0.031 0.487,-0.013C0.446,0.004 0.394,0.013 0.332,0.013C0.241,0.013 0.172,-0.008 0.123,-0.05C0.075,-0.092 0.046,-0.153 0.036,-0.233Z" style="fill-rule:nonzero;"/>
                    </g>
                </g>
            </g>
        </g>
    </g>
</svg>
